# Made in Blockbench 5.1.4
mtllib spline_static.mtl

o mesh
v 0.25 1.09375 -0.3125
v 0.25 1.09375 -0.5625
v 0.25 0.59375 -0.3125
v 0.25 0.59375 -0.5625
v -0.25 1.09375 -0.3125
v -0.25 1.09375 -0.5625
v -0.25 0.59375 -0.3125
v -0.25 0.59375 -0.5625
vt 0.6470588235294118 0.5476190476190477
vt 0.6470588235294118 0.5952380952380952
vt 0.49019607843137253 0.5952380952380952
vt 0.49019607843137253 0.5476190476190477
vt 0.49019607843137253 0.5476190476190477
vt 0.6470588235294118 0.5476190476190477
vt 0.6470588235294118 0.5952380952380952
vt 0.49019607843137253 0.5952380952380952
vt 0.6470588235294118 0.5952380952380952
vt 0.49019607843137253 0.5952380952380952
vt 0.49019607843137253 0.5476190476190477
vt 0.6470588235294118 0.5476190476190477
vt 0.6470588235294118 0.5476190476190477
vt 0.6470588235294118 0.5952380952380952
vt 0.49019607843137253 0.5952380952380952
vt 0.49019607843137253 0.5476190476190477
vt 0.5686274509803921 0.38095238095238093
vt 0.5686274509803921 0.47619047619047616
vt 0.4117647058823529 0.47619047619047616
vt 0.4117647058823529 0.38095238095238093
vt 0.5686274509803921 0.47619047619047616
vt 0.4117647058823529 0.47619047619047616
vt 0.4117647058823529 0.38095238095238093
vt 0.5686274509803921 0.38095238095238093
vn 1 0 0
vn -1 0 0
vn 0 1 0
vn 0 -1 0
vn 0 0 1
vn 0 0 -1
usemtl m_42c23444-4d45-9881-7148-6c157c786e4d
f 2/1/1 1/2/1 3/3/1 4/4/1
f 7/5/2 5/6/2 6/7/2 8/8/2
f 5/9/3 1/10/3 2/11/3 6/12/3
f 4/13/4 3/14/4 7/15/4 8/16/4
f 3/17/5 1/18/5 5/19/5 7/20/5
f 6/21/6 2/22/6 4/23/6 8/24/6
o mesh
v 0.25 1.09375 0.625
v 0.25 1.09375 0.375
v 0.25 0.59375 0.625
v 0.25 0.59375 0.375
v -0.25 1.09375 0.625
v -0.25 1.09375 0.375
v -0.25 0.59375 0.625
v -0.25 0.59375 0.375
vt 0.6470588235294118 0.5476190476190477
vt 0.6470588235294118 0.5952380952380952
vt 0.49019607843137253 0.5952380952380952
vt 0.49019607843137253 0.5476190476190477
vt 0.49019607843137253 0.5476190476190477
vt 0.6470588235294118 0.5476190476190477
vt 0.6470588235294118 0.5952380952380952
vt 0.49019607843137253 0.5952380952380952
vt 0.6470588235294118 0.5952380952380952
vt 0.49019607843137253 0.5952380952380952
vt 0.49019607843137253 0.5476190476190477
vt 0.6470588235294118 0.5476190476190477
vt 0.6470588235294118 0.5476190476190477
vt 0.6470588235294118 0.5952380952380952
vt 0.49019607843137253 0.5952380952380952
vt 0.49019607843137253 0.5476190476190477
vt 0.5686274509803921 0.38095238095238093
vt 0.5686274509803921 0.47619047619047616
vt 0.4117647058823529 0.47619047619047616
vt 0.4117647058823529 0.38095238095238093
vt 0.5686274509803921 0.47619047619047616
vt 0.4117647058823529 0.47619047619047616
vt 0.4117647058823529 0.38095238095238093
vt 0.5686274509803921 0.38095238095238093
vn 1 0 0
vn -1 0 0
vn 0 1 0
vn 0 -1 0
vn 0 0 1
vn 0 0 -1
usemtl m_42c23444-4d45-9881-7148-6c157c786e4d
f 10/25/7 9/26/7 11/27/7 12/28/7
f 15/29/8 13/30/8 14/31/8 16/32/8
f 13/33/9 9/34/9 10/35/9 14/36/9
f 12/37/10 11/38/10 15/39/10 16/40/10
f 11/41/11 9/42/11 13/43/11 15/44/11
f 14/45/12 10/46/12 12/47/12 16/48/12
o cube
v 0.25 0.59375 0.53125
v 0.25 0.59375 -0.46875
v 0.25 -0.40625 0.53125
v 0.25 -0.40625 -0.46875
v -0.75 0.59375 -0.46875
v -0.75 0.59375 0.53125
v -0.75 -0.40625 -0.46875
v -0.75 -0.40625 0.53125
vt 0.9803921568627451 0.9880952380952381
vt 0.6666666666666666 0.9880952380952381
vt 0.6666666666666666 0.7976190476190477
vt 0.9803921568627451 0.7976190476190477
vt 0.0196078431372549 0.20238095238095233
vt 0.3333333333333333 0.20238095238095233
vt 0.3333333333333333 0.011904761904761862
vt 0.0196078431372549 0.011904761904761862
vt 0.6666666666666666 0.9880952380952381
vt 0.9803921568627451 0.9880952380952381
vt 0.9803921568627451 0.7976190476190477
vt 0.6666666666666666 0.7976190476190477
vt 0.6666666666666666 0.5952380952380952
vt 0.9751633333333334 0.5952380952380952
vt 0.9751633333333334 0.40793654761904763
vt 0.6666666666666666 0.40793654761904763
vt 0.35294117647058826 0.20238095238095233
vt 0.6666666666666666 0.20238095238095233
vt 0.6666666666666666 0.011904761904761862
vt 0.35294117647058826 0.011904761904761862
vt 0.0196078431372549 0.5952380952380952
vt 0.3333333333333333 0.5952380952380952
vt 0.3333333333333333 0.40476190476190477
vt 0.0196078431372549 0.40476190476190477
vn 0 0 -1
vn 1 0 0
vn 0 0 1
vn -1 0 0
vn 0 1 0
vn 0 -1 0
usemtl m_42c23444-4d45-9881-7148-6c157c786e4d
f 20/52/13 23/51/13 21/50/13 18/49/13
f 19/56/14 20/55/14 18/54/14 17/53/14
f 24/60/15 19/59/15 17/58/15 22/57/15
f 23/64/16 24/63/16 22/62/16 21/61/16
f 22/68/17 17/67/17 18/66/17 21/65/17
f 23/72/18 20/71/18 19/70/18 24/69/18