# Made in Blockbench 5.1.4
mtllib spline_core.mtl

o core
v 0.26700500000000005 1.375 0.1250000000000001
v 0.7329950000000001 1.375 0.1250000000000001
v 0.7329950000000001 1.375 -0.06249999999999989
v 0.26700500000000005 1.375 -0.06249999999999989
v 1.0625 1.0454949999999998 0.12500000000000006
v 1.0625 1.045495 -0.06249999999999996
v 0.3093675000000001 1.2727275 -0.06249999999999992
v 0.690631875 1.2727275 -0.06249999999999992
v 1.0625 0.5795049999999999 0.12499999999999993
v 1.0625 0.5795049999999999 -0.06250000000000007
v 0.9602275 1.003131875 -0.06249999999999997
v 0.7329950000000001 0.25 0.12499999999999986
v 0.7329950000000001 0.25 -0.06250000000000014
v 0.9602275 0.6218675 -0.06250000000000006
v 0.26700500000000005 0.25 0.12499999999999986
v 0.26700500000000005 0.25 -0.06250000000000014
v 0.690631875 0.3522725 -0.06250000000000011
v -0.0625 0.5795049999999999 0.12499999999999993
v -0.0625 0.5795049999999999 -0.06250000000000007
v 0.3093675000000001 0.3522725 -0.06250000000000011
v -0.0625 1.0454949999999998 0.12500000000000006
v -0.0625 1.045495 -0.06249999999999996
v 0.039772500000000044 0.621868125 -0.06250000000000006
v 0.039772500000000044 1.003133125 -0.06249999999999997
v 0.5 0.8125 -0.06250000000000001
v 0.5 0.8125 0.12499999999999999
v 0.6906325 1.2727275 0.12500000000000008
v 0.30936812500000005 1.2727275 0.12500000000000008
v 0.039772500000000044 1.003131875 0.12500000000000003
v 0.039772500000000044 0.6218674999999999 0.12499999999999994
v 0.30936812500000005 0.3522725 0.12499999999999989
v 0.6906325 0.3522725 0.12499999999999989
v 0.9602275 0.6218674999999999 0.12499999999999994
v 0.9602275 1.003131875 0.12500000000000003
vt 0.39215686274509803 0.8928571428571429
vt 0.5882352941176471 0.8928571428571429
vt 0.5882352941176471 0.9261904761904762
vt 0.39215686274509803 0.9261904761904762
vt 0.39215686274509803 0.8928571428571429
vt 0.5882352941176471 0.8928571428571429
vt 0.5882352941176471 0.9261904761904762
vt 0.39215686274509803 0.9261904761904762
vt 0.2549019607843137 0.9772729761904762
vt 0.21568627450980393 0.9880952380952381
vt 0.21568627450980393 0.8690476190476191
vt 0.2549019607843137 0.879869880952381
vt 0.39215686274509803 0.8928571428571429
vt 0.5882352941176471 0.8928571428571429
vt 0.5882352941176471 0.9261904761904762
vt 0.39215686274509803 0.9261904761904762
vt 0.2549019607843137 0.9772729761904762
vt 0.21568627450980393 0.9880952380952381
vt 0.21568627450980393 0.8690476190476191
vt 0.2549019607843137 0.879869880952381
vt 0.39215686274509803 0.8928571428571429
vt 0.5882352941176471 0.8928571428571429
vt 0.5882352941176471 0.9261904761904762
vt 0.39215686274509803 0.9261904761904762
vt 0.2549019607843137 0.9772729761904762
vt 0.21568627450980393 0.9880952380952381
vt 0.21568627450980393 0.8690476190476191
vt 0.2549019607843137 0.879869880952381
vt 0.39215686274509803 0.8928571428571429
vt 0.5882352941176471 0.8928571428571429
vt 0.5882352941176471 0.9261904761904762
vt 0.39215686274509803 0.9261904761904762
vt 0.2549019607843137 0.9772729761904762
vt 0.21568627450980393 0.9880952380952381
vt 0.21568627450980393 0.8690476190476191
vt 0.2549019607843137 0.879869880952381
vt 0.39215686274509803 0.8928571428571429
vt 0.5882352941176471 0.8928571428571429
vt 0.5882352941176471 0.9261904761904762
vt 0.39215686274509803 0.9261904761904762
vt 0.2549019607843137 0.9772729761904762
vt 0.21568627450980393 0.9880952380952381
vt 0.21568627450980393 0.8690476190476191
vt 0.2549019607843137 0.879869880952381
vt 0.39215686274509803 0.8928571428571429
vt 0.5882352941176471 0.8928571428571429
vt 0.5882352941176471 0.9261904761904762
vt 0.39215686274509803 0.9261904761904762
vt 0.2549019607843137 0.9772729761904762
vt 0.21568627450980393 0.9880952380952381
vt 0.21568627450980393 0.8690476190476191
vt 0.2549019607843137 0.879869880952381
vt 0.39215686274509803 0.8928571428571429
vt 0.5882352941176471 0.8928571428571429
vt 0.5882352941176471 0.9261904761904762
vt 0.39215686274509803 0.9261904761904762
vt 0.2549019607843137 0.9772729761904762
vt 0.21568627450980393 0.9880952380952381
vt 0.21568627450980393 0.8690476190476191
vt 0.2549019607843137 0.879869880952381
vt 0.2549019607843137 0.9772729761904762
vt 0.21568627450980393 0.9880952380952381
vt 0.21568627450980393 0.8690476190476191
vt 0.2549019607843137 0.879869880952381
vt 0.49019607843137253 0.8928571428571429
vt 0.6470588235294118 0.930952380952381
vt 0.5529411764705883 0.9880952380952381
vt 0.49019607843137253 0.8928571428571429
vt 0.6470588235294118 0.8547619047619048
vt 0.6470588235294118 0.930952380952381
vt 0.49019607843137253 0.8928571428571429
vt 0.5529411764705883 0.7976190476190477
vt 0.6470588235294118 0.8547619047619048
vt 0.49019607843137253 0.8928571428571429
vt 0.4274509803921569 0.7976190476190477
vt 0.5529411764705883 0.7976190476190477
vt 0.49019607843137253 0.8928571428571429
vt 0.5529411764705883 0.9880952380952381
vt 0.4274509803921569 0.9880952380952381
vt 0.49019607843137253 0.8928571428571429
vt 0.4274509803921569 0.9880952380952381
vt 0.3333333333333333 0.930952380952381
vt 0.49019607843137253 0.8928571428571429
vt 0.3333333333333333 0.930952380952381
vt 0.3333333333333333 0.8547619047619048
vt 0.49019607843137253 0.8928571428571429
vt 0.3333333333333333 0.8547619047619048
vt 0.4274509803921569 0.7976190476190477
vt 0.49019607843137253 0.8928571428571429
vt 0.4274509803921569 0.7976190476190477
vt 0.5529411764705883 0.7976190476190477
vt 0.49019607843137253 0.8928571428571429
vt 0.3333333333333333 0.8547619047619048
vt 0.4274509803921569 0.7976190476190477
vt 0.49019607843137253 0.8928571428571429
vt 0.5529411764705883 0.7976190476190477
vt 0.6470588235294118 0.8547619047619048
vt 0.49019607843137253 0.8928571428571429
vt 0.6470588235294118 0.8547619047619048
vt 0.6470588235294118 0.930952380952381
vt 0.49019607843137253 0.8928571428571429
vt 0.3333333333333333 0.930952380952381
vt 0.3333333333333333 0.8547619047619048
vt 0.2549019607843137 0.879869880952381
vt 0.21568627450980393 0.8690476190476191
vt 0.21568627450980393 0.9880952380952381
vt 0.2549019607843137 0.9772729761904762
vt 0.49019607843137253 0.8928571428571429
vt 0.6470588235294118 0.930952380952381
vt 0.5529411764705883 0.9880952380952381
vt 0.2549019607843137 0.879869880952381
vt 0.21568627450980393 0.8690476190476191
vt 0.21568627450980393 0.9880952380952381
vt 0.2549019607843137 0.9772729761904762
vt 0.2549019607843137 0.879869880952381
vt 0.21568627450980393 0.8690476190476191
vt 0.21568627450980393 0.9880952380952381
vt 0.2549019607843137 0.9772729761904762
vt 0.49019607843137253 0.8928571428571429
vt 0.4274509803921569 0.9880952380952381
vt 0.3333333333333333 0.930952380952381
vt 0.2549019607843137 0.879869880952381
vt 0.21568627450980393 0.8690476190476191
vt 0.21568627450980393 0.9880952380952381
vt 0.2549019607843137 0.9772729761904762
vt 0.2549019607843137 0.879869880952381
vt 0.21568627450980393 0.8690476190476191
vt 0.21568627450980393 0.9880952380952381
vt 0.2549019607843137 0.9772729761904762
vt 0.2549019607843137 0.879869880952381
vt 0.21568627450980393 0.8690476190476191
vt 0.21568627450980393 0.9880952380952381
vt 0.2549019607843137 0.9772729761904762
vt 0.2549019607843137 0.879869880952381
vt 0.21568627450980393 0.8690476190476191
vt 0.21568627450980393 0.9880952380952381
vt 0.2549019607843137 0.9772729761904762
vt 0.2549019607843137 0.879869880952381
vt 0.21568627450980393 0.8690476190476191
vt 0.21568627450980393 0.9880952380952381
vt 0.2549019607843137 0.9772729761904762
vt 0.49019607843137253 0.8928571428571429
vt 0.5529411764705883 0.9880952380952381
vt 0.4274509803921569 0.9880952380952381
vn 0 1 2.220446049250313e-16
vn 0.7071067811865476 0.7071067811865475 1.570092458683775e-16
vn 0 2.220446049250313e-16 -1
vn 1 0 0
vn 0 2.220446049250313e-16 -1
vn 0.7071067811865475 -0.7071067811865477 -1.5700924586837754e-16
vn 0 2.220446049250313e-16 -1
vn 0 -1 -2.220446049250313e-16
vn 0 2.220446049250313e-16 -1
vn -0.7071067811865474 -0.7071067811865477 -1.5700924586837754e-16
vn 0 2.220446049250313e-16 -1
vn -1 0 0
vn 0 2.220446049250313e-16 -1
vn -0.7071067811865476 0.7071067811865476 1.5700924586837752e-16
vn 0 2.220446049250313e-16 -1
vn 0 2.220446049250313e-16 -1
vn 0 2.220446049250313e-16 -1
vn 0 2.220446049250313e-16 -1
vn 0 2.220446049250313e-16 -1
vn 0 2.220446049250313e-16 -1
vn 0 -2.220446049250313e-16 1
vn 0 -2.220446049250313e-16 1
vn 0 -2.220446049250313e-16 1
vn 0 2.220446049250313e-16 -1
vn 0 -2.220446049250313e-16 1
vn 0 -2.220446049250313e-16 1
vn 0 -2.220446049250313e-16 1
vn 0 -2.220446049250313e-16 1
vn 0 2.220446049250313e-16 -1
vn 0 -2.220446049250313e-16 1
vn 0 -2.220446049250313e-16 1
vn 0 -2.220446049250313e-16 1
vn 0 -2.220446049250313e-16 1
vn 0 2.220446049250313e-16 -1
vn 0 -2.220446049250313e-16 1
vn 0 -2.220446049250313e-16 1
vn 0 -2.220446049250313e-16 1
vn 0 -2.220446049250313e-16 1
vn 0 -2.220446049250313e-16 1
vn 0 2.220446049250313e-16 -1
usemtl m_42c23444-4d45-9881-7148-6c157c786e4d
f 1/1/1 2/2/1 3/3/1 4/4/1
f 2/5/2 5/6/2 6/7/2 3/8/2
f 7/9/3 4/10/3 3/11/3 8/12/3
f 5/13/4 9/14/4 10/15/4 6/16/4
f 8/17/5 3/18/5 6/19/5 11/20/5
f 9/21/6 12/22/6 13/23/6 10/24/6
f 11/25/7 6/26/7 10/27/7 14/28/7
f 12/29/8 15/30/8 16/31/8 13/32/8
f 14/33/9 10/34/9 13/35/9 17/36/9
f 15/37/10 18/38/10 19/39/10 16/40/10
f 17/41/11 13/42/11 16/43/11 20/44/11
f 18/45/12 21/46/12 22/47/12 19/48/12
f 20/49/13 16/50/13 19/51/13 23/52/13
f 21/53/14 1/54/14 4/55/14 22/56/14
f 23/57/15 19/58/15 22/59/15 24/60/15
f 24/61/16 22/62/16 4/63/16 7/64/16
f 25/65/17 24/66/17 7/67/17
f 25/68/18 23/69/18 24/70/18
f 25/71/19 20/72/19 23/73/19
f 25/74/20 17/75/20 20/76/20
f 26/77/21 27/78/21 28/79/21
f 26/80/22 28/81/22 29/82/22
f 26/83/23 29/84/23 30/85/23
f 25/86/24 14/87/24 17/88/24
f 26/89/25 31/90/25 32/91/25
f 26/92/26 30/93/26 31/94/26
f 26/95/27 32/96/27 33/97/27
f 26/98/28 33/99/28 34/100/28
f 25/101/29 11/102/29 14/103/29
f 34/104/30 5/105/30 2/106/30 27/107/30
f 26/108/31 34/109/31 27/110/31
f 33/111/32 9/112/32 5/113/32 34/114/32
f 32/115/33 12/116/33 9/117/33 33/118/33
f 25/119/34 8/120/34 11/121/34
f 30/122/35 18/123/35 15/124/35 31/125/35
f 31/126/36 15/127/36 12/128/36 32/129/36
f 29/130/37 21/131/37 18/132/37 30/133/37
f 28/134/38 1/135/38 21/136/38 29/137/38
f 27/138/39 2/139/39 1/140/39 28/141/39
f 25/142/40 7/143/40 8/144/40
o core
v 0.21522812500000005 1.5 0.37500000000000017
v 0.7847718750000001 1.5 0.37500000000000017
v 0.7847718750000001 1.5 0.12500000000000014
v 0.21522812500000005 1.5 0.12500000000000014
v 1.1875 1.097271875 0.37500000000000006
v 1.1875 1.0972718750000001 0.12500000000000006
v 0.26700437500000007 1.375 0.1250000000000001
v 0.7329950000000001 1.375 0.1250000000000001
v 1.1875 0.5277281249999999 0.37499999999999994
v 1.1875 0.527728125 0.12499999999999992
v 1.0625 1.045495 0.12500000000000006
v 0.7847718750000001 0.12499999999999989 0.37499999999999983
v 0.7847718750000001 0.125 0.12499999999999983
v 1.0625 0.579504375 0.12499999999999993
v 0.21522812500000005 0.12499999999999989 0.37499999999999983
v 0.21522812500000005 0.125 0.12499999999999983
v 0.7329950000000001 0.25 0.12499999999999986
v -0.1875 0.5277281249999999 0.37499999999999994
v -0.1875 0.527728125 0.12499999999999992
v 0.26700437500000007 0.25 0.12499999999999986
v -0.1875 1.097271875 0.37500000000000006
v -0.1875 1.0972718750000001 0.12500000000000006
v -0.0625 0.5795056249999999 0.12499999999999993
v -0.0625 1.045495625 0.12500000000000006
v 0.5 0.8125 0.12499999999999999
v 0.5 0.8124999999999999 0.375
v 0.732995625 1.375 0.3750000000000001
v 0.26700500000000005 1.375 0.3750000000000001
v -0.0625 1.0454949999999998 0.37500000000000006
v -0.0625 0.5795043749999998 0.37499999999999994
v 0.26700500000000005 0.2499999999999999 0.3749999999999999
v 0.732995625 0.2499999999999999 0.3749999999999999
v 1.0625 0.5795043749999998 0.37499999999999994
v 1.0625 1.0454949999999998 0.37500000000000006
vt 0.39215686274509803 0.8690476190476191
vt 0.5882352941176471 0.8690476190476191
vt 0.5882352941176471 0.9166666666666666
vt 0.39215686274509803 0.9166666666666666
vt 0.39215686274509803 0.8690476190476191
vt 0.5882352941176471 0.8690476190476191
vt 0.5882352941176471 0.9166666666666666
vt 0.39215686274509803 0.9166666666666666
vt 0.2549019607843137 0.9772729761904762
vt 0.21568627450980393 0.9880952380952381
vt 0.21568627450980393 0.8690476190476191
vt 0.2549019607843137 0.879869880952381
vt 0.39215686274509803 0.8690476190476191
vt 0.5882352941176471 0.8690476190476191
vt 0.5882352941176471 0.9166666666666666
vt 0.39215686274509803 0.9166666666666666
vt 0.2549019607843137 0.9772729761904762
vt 0.21568627450980393 0.9880952380952381
vt 0.21568627450980393 0.8690476190476191
vt 0.2549019607843137 0.879869880952381
vt 0.39215686274509803 0.8690476190476191
vt 0.5882352941176471 0.8690476190476191
vt 0.5882352941176471 0.9166666666666666
vt 0.39215686274509803 0.9166666666666666
vt 0.2549019607843137 0.9772729761904762
vt 0.21568627450980393 0.9880952380952381
vt 0.21568627450980393 0.8690476190476191
vt 0.2549019607843137 0.879869880952381
vt 0.39215686274509803 0.8690476190476191
vt 0.5882352941176471 0.8690476190476191
vt 0.5882352941176471 0.9166666666666666
vt 0.39215686274509803 0.9166666666666666
vt 0.2549019607843137 0.9772729761904762
vt 0.21568627450980393 0.9880952380952381
vt 0.21568627450980393 0.8690476190476191
vt 0.2549019607843137 0.879869880952381
vt 0.39215686274509803 0.8690476190476191
vt 0.5882352941176471 0.8690476190476191
vt 0.5882352941176471 0.9166666666666666
vt 0.39215686274509803 0.9166666666666666
vt 0.2549019607843137 0.9772729761904762
vt 0.21568627450980393 0.9880952380952381
vt 0.21568627450980393 0.8690476190476191
vt 0.2549019607843137 0.879869880952381
vt 0.39215686274509803 0.8690476190476191
vt 0.5882352941176471 0.8690476190476191
vt 0.5882352941176471 0.9166666666666666
vt 0.39215686274509803 0.9166666666666666
vt 0.2549019607843137 0.9772729761904762
vt 0.21568627450980393 0.9880952380952381
vt 0.21568627450980393 0.8690476190476191
vt 0.2549019607843137 0.879869880952381
vt 0.39215686274509803 0.8690476190476191
vt 0.5882352941176471 0.8690476190476191
vt 0.5882352941176471 0.9166666666666666
vt 0.39215686274509803 0.9166666666666666
vt 0.2549019607843137 0.9772729761904762
vt 0.21568627450980393 0.9880952380952381
vt 0.21568627450980393 0.8690476190476191
vt 0.2549019607843137 0.879869880952381
vt 0.2549019607843137 0.9772729761904762
vt 0.21568627450980393 0.9880952380952381
vt 0.21568627450980393 0.8690476190476191
vt 0.2549019607843137 0.879869880952381
vt 0.49019607843137253 0.8928571428571429
vt 0.6470588235294118 0.930952380952381
vt 0.5529411764705883 0.9880952380952381
vt 0.49019607843137253 0.8928571428571429
vt 0.6470588235294118 0.8547619047619048
vt 0.6470588235294118 0.930952380952381
vt 0.49019607843137253 0.8928571428571429
vt 0.5529411764705883 0.7976190476190477
vt 0.6470588235294118 0.8547619047619048
vt 0.49019607843137253 0.8928571428571429
vt 0.4274509803921569 0.7976190476190477
vt 0.5529411764705883 0.7976190476190477
vt 0.49019607843137253 0.8928571428571429
vt 0.5529411764705883 0.9880952380952381
vt 0.4274509803921569 0.9880952380952381
vt 0.49019607843137253 0.8928571428571429
vt 0.4274509803921569 0.9880952380952381
vt 0.3333333333333333 0.930952380952381
vt 0.49019607843137253 0.8928571428571429
vt 0.3333333333333333 0.930952380952381
vt 0.3333333333333333 0.8547619047619048
vt 0.49019607843137253 0.8928571428571429
vt 0.3333333333333333 0.8547619047619048
vt 0.4274509803921569 0.7976190476190477
vt 0.49019607843137253 0.8928571428571429
vt 0.4274509803921569 0.7976190476190477
vt 0.5529411764705883 0.7976190476190477
vt 0.49019607843137253 0.8928571428571429
vt 0.3333333333333333 0.8547619047619048
vt 0.4274509803921569 0.7976190476190477
vt 0.49019607843137253 0.8928571428571429
vt 0.5529411764705883 0.7976190476190477
vt 0.6470588235294118 0.8547619047619048
vt 0.49019607843137253 0.8928571428571429
vt 0.6470588235294118 0.8547619047619048
vt 0.6470588235294118 0.930952380952381
vt 0.49019607843137253 0.8928571428571429
vt 0.3333333333333333 0.930952380952381
vt 0.3333333333333333 0.8547619047619048
vt 0.2549019607843137 0.879869880952381
vt 0.21568627450980393 0.8690476190476191
vt 0.21568627450980393 0.9880952380952381
vt 0.2549019607843137 0.9772729761904762
vt 0.49019607843137253 0.8928571428571429
vt 0.6470588235294118 0.930952380952381
vt 0.5529411764705883 0.9880952380952381
vt 0.2549019607843137 0.879869880952381
vt 0.21568627450980393 0.8690476190476191
vt 0.21568627450980393 0.9880952380952381
vt 0.2549019607843137 0.9772729761904762
vt 0.2549019607843137 0.879869880952381
vt 0.21568627450980393 0.8690476190476191
vt 0.21568627450980393 0.9880952380952381
vt 0.2549019607843137 0.9772729761904762
vt 0.49019607843137253 0.8928571428571429
vt 0.4274509803921569 0.9880952380952381
vt 0.3333333333333333 0.930952380952381
vt 0.2549019607843137 0.879869880952381
vt 0.21568627450980393 0.8690476190476191
vt 0.21568627450980393 0.9880952380952381
vt 0.2549019607843137 0.9772729761904762
vt 0.2549019607843137 0.879869880952381
vt 0.21568627450980393 0.8690476190476191
vt 0.21568627450980393 0.9880952380952381
vt 0.2549019607843137 0.9772729761904762
vt 0.2549019607843137 0.879869880952381
vt 0.21568627450980393 0.8690476190476191
vt 0.21568627450980393 0.9880952380952381
vt 0.2549019607843137 0.9772729761904762
vt 0.2549019607843137 0.879869880952381
vt 0.21568627450980393 0.8690476190476191
vt 0.21568627450980393 0.9880952380952381
vt 0.2549019607843137 0.9772729761904762
vt 0.2549019607843137 0.879869880952381
vt 0.21568627450980393 0.8690476190476191
vt 0.21568627450980393 0.9880952380952381
vt 0.2549019607843137 0.9772729761904762
vt 0.49019607843137253 0.8928571428571429
vt 0.5529411764705883 0.9880952380952381
vt 0.4274509803921569 0.9880952380952381
vn 0 1 2.220446049250313e-16
vn 0.7071067811865476 0.7071067811865475 1.570092458683775e-16
vn 0 2.220446049250313e-16 -1
vn 1 0 0
vn 0 2.220446049250313e-16 -1
vn 0.7071067811865476 -0.7071067811865475 -1.570092458683775e-16
vn 0 2.220446049250313e-16 -1
vn 0 -1 -2.220446049250313e-16
vn 0 2.220446049250313e-16 -1
vn -0.7071067811865475 -0.7071067811865476 -1.5700924586837752e-16
vn 0 2.220446049250313e-16 -1
vn -1 0 0
vn 0 2.220446049250313e-16 -1
vn -0.7071067811865475 0.7071067811865476 1.5700924586837752e-16
vn 0 2.220446049250313e-16 -1
vn 0 2.220446049250313e-16 -1
vn 0 2.220446049250313e-16 -1
vn 0 2.220446049250313e-16 -1
vn 0 2.220446049250313e-16 -1
vn 0 2.220446049250313e-16 -1
vn 0 -2.220446049250313e-16 1
vn 0 -2.220446049250313e-16 1
vn 0 -2.220446049250313e-16 1
vn 0 2.220446049250313e-16 -1
vn 0 -2.220446049250313e-16 1
vn 0 -2.220446049250313e-16 1
vn 0 -2.220446049250313e-16 1
vn 0 -2.220446049250313e-16 1
vn 0 2.220446049250313e-16 -1
vn 0 -2.220446049250313e-16 1
vn 0 -2.220446049250313e-16 1
vn 0 -2.220446049250313e-16 1
vn 0 -2.220446049250313e-16 1
vn 0 2.220446049250313e-16 -1
vn 0 -2.220446049250313e-16 1
vn 0 -2.220446049250313e-16 1
vn 0 -2.220446049250313e-16 1
vn 0 -2.220446049250313e-16 1
vn 0 -2.220446049250313e-16 1
vn 0 2.220446049250313e-16 -1
usemtl m_42c23444-4d45-9881-7148-6c157c786e4d
f 35/145/41 36/146/41 37/147/41 38/148/41
f 36/149/42 39/150/42 40/151/42 37/152/42
f 41/153/43 38/154/43 37/155/43 42/156/43
f 39/157/44 43/158/44 44/159/44 40/160/44
f 42/161/45 37/162/45 40/163/45 45/164/45
f 43/165/46 46/166/46 47/167/46 44/168/46
f 45/169/47 40/170/47 44/171/47 48/172/47
f 46/173/48 49/174/48 50/175/48 47/176/48
f 48/177/49 44/178/49 47/179/49 51/180/49
f 49/181/50 52/182/50 53/183/50 50/184/50
f 51/185/51 47/186/51 50/187/51 54/188/51
f 52/189/52 55/190/52 56/191/52 53/192/52
f 54/193/53 50/194/53 53/195/53 57/196/53
f 55/197/54 35/198/54 38/199/54 56/200/54
f 57/201/55 53/202/55 56/203/55 58/204/55
f 58/205/56 56/206/56 38/207/56 41/208/56
f 59/209/57 58/210/57 41/211/57
f 59/212/58 57/213/58 58/214/58
f 59/215/59 54/216/59 57/217/59
f 59/218/60 51/219/60 54/220/60
f 60/221/61 61/222/61 62/223/61
f 60/224/62 62/225/62 63/226/62
f 60/227/63 63/228/63 64/229/63
f 59/230/64 48/231/64 51/232/64
f 60/233/65 65/234/65 66/235/65
f 60/236/66 64/237/66 65/238/66
f 60/239/67 66/240/67 67/241/67
f 60/242/68 67/243/68 68/244/68
f 59/245/69 45/246/69 48/247/69
f 68/248/70 39/249/70 36/250/70 61/251/70
f 60/252/71 68/253/71 61/254/71
f 67/255/72 43/256/72 39/257/72 68/258/72
f 66/259/73 46/260/73 43/261/73 67/262/73
f 59/263/74 42/264/74 45/265/74
f 64/266/75 52/267/75 49/268/75 65/269/75
f 65/270/76 49/271/76 46/272/76 66/273/76
f 63/274/77 55/275/77 52/276/77 64/277/77
f 62/278/78 35/279/78 55/280/78 63/281/78
f 61/282/79 36/283/79 35/284/79 62/285/79
f 59/286/80 41/287/80 42/288/80
o core
v 0.21522812500000005 1.5 -0.06249999999999983
v 0.7847718750000001 1.5 -0.06249999999999983
v 0.7847718750000001 1.5 -0.31249999999999983
v 0.21522812500000005 1.5 -0.31249999999999983
v 1.1875 1.0972718750000001 -0.06249999999999992
v 1.1875 1.0972718750000001 -0.31249999999999994
v 0.26700437500000007 1.375 -0.3124999999999999
v 0.7329950000000001 1.375 -0.3124999999999999
v 1.1875 0.527728125 -0.06250000000000006
v 1.1875 0.5277281250000001 -0.31250000000000006
v 1.0625 1.045495 -0.31249999999999994
v 0.7847718750000001 0.125 -0.06250000000000014
v 0.7847718750000001 0.1250000000000001 -0.31250000000000017
v 1.0625 0.5795043750000001 -0.31250000000000006
v 0.21522812500000005 0.125 -0.06250000000000014
v 0.21522812500000005 0.1250000000000001 -0.31250000000000017
v 0.7329950000000001 0.2500000000000001 -0.3125000000000001
v -0.1875 0.527728125 -0.06250000000000006
v -0.1875 0.5277281250000001 -0.31250000000000006
v 0.26700437500000007 0.2500000000000001 -0.3125000000000001
v -0.1875 1.0972718750000001 -0.06249999999999992
v -0.1875 1.0972718750000001 -0.31249999999999994
v -0.0625 0.579505625 -0.31250000000000006
v -0.0625 1.045495625 -0.31249999999999994
v 0.5 0.8125 -0.3125
v 0.5 0.8125 -0.062499999999999986
v 0.732995625 1.375 -0.06249999999999986
v 0.26700500000000005 1.375 -0.06249999999999986
v -0.0625 1.045495 -0.06249999999999993
v -0.0625 0.579504375 -0.06250000000000004
v 0.26700500000000005 0.25 -0.06250000000000011
v 0.732995625 0.25 -0.06250000000000011
v 1.0625 0.579504375 -0.06250000000000004
v 1.0625 1.045495 -0.06249999999999993
vt 0.39215686274509803 0.8690476190476191
vt 0.5882352941176471 0.8690476190476191
vt 0.5882352941176471 0.9166666666666666
vt 0.39215686274509803 0.9166666666666666
vt 0.39215686274509803 0.8690476190476191
vt 0.5882352941176471 0.8690476190476191
vt 0.5882352941176471 0.9166666666666666
vt 0.39215686274509803 0.9166666666666666
vt 0.2549019607843137 0.9772729761904762
vt 0.21568627450980393 0.9880952380952381
vt 0.21568627450980393 0.8690476190476191
vt 0.2549019607843137 0.879869880952381
vt 0.39215686274509803 0.8690476190476191
vt 0.5882352941176471 0.8690476190476191
vt 0.5882352941176471 0.9166666666666666
vt 0.39215686274509803 0.9166666666666666
vt 0.2549019607843137 0.9772729761904762
vt 0.21568627450980393 0.9880952380952381
vt 0.21568627450980393 0.8690476190476191
vt 0.2549019607843137 0.879869880952381
vt 0.39215686274509803 0.8690476190476191
vt 0.5882352941176471 0.8690476190476191
vt 0.5882352941176471 0.9166666666666666
vt 0.39215686274509803 0.9166666666666666
vt 0.2549019607843137 0.9772729761904762
vt 0.21568627450980393 0.9880952380952381
vt 0.21568627450980393 0.8690476190476191
vt 0.2549019607843137 0.879869880952381
vt 0.39215686274509803 0.8690476190476191
vt 0.5882352941176471 0.8690476190476191
vt 0.5882352941176471 0.9166666666666666
vt 0.39215686274509803 0.9166666666666666
vt 0.2549019607843137 0.9772729761904762
vt 0.21568627450980393 0.9880952380952381
vt 0.21568627450980393 0.8690476190476191
vt 0.2549019607843137 0.879869880952381
vt 0.39215686274509803 0.8690476190476191
vt 0.5882352941176471 0.8690476190476191
vt 0.5882352941176471 0.9166666666666666
vt 0.39215686274509803 0.9166666666666666
vt 0.2549019607843137 0.9772729761904762
vt 0.21568627450980393 0.9880952380952381
vt 0.21568627450980393 0.8690476190476191
vt 0.2549019607843137 0.879869880952381
vt 0.39215686274509803 0.8690476190476191
vt 0.5882352941176471 0.8690476190476191
vt 0.5882352941176471 0.9166666666666666
vt 0.39215686274509803 0.9166666666666666
vt 0.2549019607843137 0.9772729761904762
vt 0.21568627450980393 0.9880952380952381
vt 0.21568627450980393 0.8690476190476191
vt 0.2549019607843137 0.879869880952381
vt 0.39215686274509803 0.8690476190476191
vt 0.5882352941176471 0.8690476190476191
vt 0.5882352941176471 0.9166666666666666
vt 0.39215686274509803 0.9166666666666666
vt 0.2549019607843137 0.9772729761904762
vt 0.21568627450980393 0.9880952380952381
vt 0.21568627450980393 0.8690476190476191
vt 0.2549019607843137 0.879869880952381
vt 0.2549019607843137 0.9772729761904762
vt 0.21568627450980393 0.9880952380952381
vt 0.21568627450980393 0.8690476190476191
vt 0.2549019607843137 0.879869880952381
vt 0.49019607843137253 0.8928571428571429
vt 0.6470588235294118 0.930952380952381
vt 0.5529411764705883 0.9880952380952381
vt 0.49019607843137253 0.8928571428571429
vt 0.6470588235294118 0.8547619047619048
vt 0.6470588235294118 0.930952380952381
vt 0.49019607843137253 0.8928571428571429
vt 0.5529411764705883 0.7976190476190477
vt 0.6470588235294118 0.8547619047619048
vt 0.49019607843137253 0.8928571428571429
vt 0.4274509803921569 0.7976190476190477
vt 0.5529411764705883 0.7976190476190477
vt 0.49019607843137253 0.8928571428571429
vt 0.5529411764705883 0.9880952380952381
vt 0.4274509803921569 0.9880952380952381
vt 0.49019607843137253 0.8928571428571429
vt 0.4274509803921569 0.9880952380952381
vt 0.3333333333333333 0.930952380952381
vt 0.49019607843137253 0.8928571428571429
vt 0.3333333333333333 0.930952380952381
vt 0.3333333333333333 0.8547619047619048
vt 0.49019607843137253 0.8928571428571429
vt 0.3333333333333333 0.8547619047619048
vt 0.4274509803921569 0.7976190476190477
vt 0.49019607843137253 0.8928571428571429
vt 0.4274509803921569 0.7976190476190477
vt 0.5529411764705883 0.7976190476190477
vt 0.49019607843137253 0.8928571428571429
vt 0.3333333333333333 0.8547619047619048
vt 0.4274509803921569 0.7976190476190477
vt 0.49019607843137253 0.8928571428571429
vt 0.5529411764705883 0.7976190476190477
vt 0.6470588235294118 0.8547619047619048
vt 0.49019607843137253 0.8928571428571429
vt 0.6470588235294118 0.8547619047619048
vt 0.6470588235294118 0.930952380952381
vt 0.49019607843137253 0.8928571428571429
vt 0.3333333333333333 0.930952380952381
vt 0.3333333333333333 0.8547619047619048
vt 0.2549019607843137 0.879869880952381
vt 0.21568627450980393 0.8690476190476191
vt 0.21568627450980393 0.9880952380952381
vt 0.2549019607843137 0.9772729761904762
vt 0.49019607843137253 0.8928571428571429
vt 0.6470588235294118 0.930952380952381
vt 0.5529411764705883 0.9880952380952381
vt 0.2549019607843137 0.879869880952381
vt 0.21568627450980393 0.8690476190476191
vt 0.21568627450980393 0.9880952380952381
vt 0.2549019607843137 0.9772729761904762
vt 0.2549019607843137 0.879869880952381
vt 0.21568627450980393 0.8690476190476191
vt 0.21568627450980393 0.9880952380952381
vt 0.2549019607843137 0.9772729761904762
vt 0.49019607843137253 0.8928571428571429
vt 0.4274509803921569 0.9880952380952381
vt 0.3333333333333333 0.930952380952381
vt 0.2549019607843137 0.879869880952381
vt 0.21568627450980393 0.8690476190476191
vt 0.21568627450980393 0.9880952380952381
vt 0.2549019607843137 0.9772729761904762
vt 0.2549019607843137 0.879869880952381
vt 0.21568627450980393 0.8690476190476191
vt 0.21568627450980393 0.9880952380952381
vt 0.2549019607843137 0.9772729761904762
vt 0.2549019607843137 0.879869880952381
vt 0.21568627450980393 0.8690476190476191
vt 0.21568627450980393 0.9880952380952381
vt 0.2549019607843137 0.9772729761904762
vt 0.2549019607843137 0.879869880952381
vt 0.21568627450980393 0.8690476190476191
vt 0.21568627450980393 0.9880952380952381
vt 0.2549019607843137 0.9772729761904762
vt 0.2549019607843137 0.879869880952381
vt 0.21568627450980393 0.8690476190476191
vt 0.21568627450980393 0.9880952380952381
vt 0.2549019607843137 0.9772729761904762
vt 0.49019607843137253 0.8928571428571429
vt 0.5529411764705883 0.9880952380952381
vt 0.4274509803921569 0.9880952380952381
vn 0 1 2.220446049250313e-16
vn 0.7071067811865476 0.7071067811865475 1.570092458683775e-16
vn 0 2.220446049250313e-16 -1
vn 1 0 0
vn 0 2.220446049250313e-16 -1
vn 0.7071067811865476 -0.7071067811865475 -1.570092458683775e-16
vn 0 2.220446049250313e-16 -1
vn 0 -1 -2.220446049250313e-16
vn 0 2.220446049250313e-16 -1
vn -0.7071067811865475 -0.7071067811865476 -1.5700924586837752e-16
vn 0 2.220446049250313e-16 -1
vn -1 0 0
vn 0 2.220446049250313e-16 -1
vn -0.7071067811865475 0.7071067811865476 1.5700924586837752e-16
vn 0 2.220446049250313e-16 -1
vn 0 2.220446049250313e-16 -1
vn 0 2.220446049250313e-16 -1
vn 0 2.220446049250313e-16 -1
vn 0 2.220446049250313e-16 -1
vn 0 2.220446049250313e-16 -1
vn 0 -2.220446049250313e-16 1
vn 0 -2.220446049250313e-16 1
vn 0 -2.220446049250313e-16 1
vn 0 2.220446049250313e-16 -1
vn 0 -2.220446049250313e-16 1
vn 0 -2.220446049250313e-16 1
vn 0 -2.220446049250313e-16 1
vn 0 -2.220446049250313e-16 1
vn 0 2.220446049250313e-16 -1
vn 0 -2.220446049250313e-16 1
vn 0 -2.220446049250313e-16 1
vn 0 -2.220446049250313e-16 1
vn 0 -2.220446049250313e-16 1
vn 0 2.220446049250313e-16 -1
vn 0 -2.220446049250313e-16 1
vn 0 -2.220446049250313e-16 1
vn 0 -2.220446049250313e-16 1
vn 0 -2.220446049250313e-16 1
vn 0 -2.220446049250313e-16 1
vn 0 2.220446049250313e-16 -1
usemtl m_42c23444-4d45-9881-7148-6c157c786e4d
f 69/289/81 70/290/81 71/291/81 72/292/81
f 70/293/82 73/294/82 74/295/82 71/296/82
f 75/297/83 72/298/83 71/299/83 76/300/83
f 73/301/84 77/302/84 78/303/84 74/304/84
f 76/305/85 71/306/85 74/307/85 79/308/85
f 77/309/86 80/310/86 81/311/86 78/312/86
f 79/313/87 74/314/87 78/315/87 82/316/87
f 80/317/88 83/318/88 84/319/88 81/320/88
f 82/321/89 78/322/89 81/323/89 85/324/89
f 83/325/90 86/326/90 87/327/90 84/328/90
f 85/329/91 81/330/91 84/331/91 88/332/91
f 86/333/92 89/334/92 90/335/92 87/336/92
f 88/337/93 84/338/93 87/339/93 91/340/93
f 89/341/94 69/342/94 72/343/94 90/344/94
f 91/345/95 87/346/95 90/347/95 92/348/95
f 92/349/96 90/350/96 72/351/96 75/352/96
f 93/353/97 92/354/97 75/355/97
f 93/356/98 91/357/98 92/358/98
f 93/359/99 88/360/99 91/361/99
f 93/362/100 85/363/100 88/364/100
f 94/365/101 95/366/101 96/367/101
f 94/368/102 96/369/102 97/370/102
f 94/371/103 97/372/103 98/373/103
f 93/374/104 82/375/104 85/376/104
f 94/377/105 99/378/105 100/379/105
f 94/380/106 98/381/106 99/382/106
f 94/383/107 100/384/107 101/385/107
f 94/386/108 101/387/108 102/388/108
f 93/389/109 79/390/109 82/391/109
f 102/392/110 73/393/110 70/394/110 95/395/110
f 94/396/111 102/397/111 95/398/111
f 101/399/112 77/400/112 73/401/112 102/402/112
f 100/403/113 80/404/113 77/405/113 101/406/113
f 93/407/114 76/408/114 79/409/114
f 98/410/115 86/411/115 83/412/115 99/413/115
f 99/414/116 83/415/116 80/416/116 100/417/116
f 97/418/117 89/419/117 86/420/117 98/421/117
f 96/422/118 69/423/118 89/424/118 97/425/118
f 95/426/119 70/427/119 69/428/119 96/429/119
f 93/430/120 75/431/120 76/432/120