# Made in Blockbench 5.1.4
mtllib spline_block.mtl

o mesh
v 0.375 1.09375 -0.3125
v 0.375 1.09375 -0.5625
v 0.375 0.59375 -0.3125
v 0.375 0.59375 -0.5625
v -0.125 1.09375 -0.3125
v -0.125 1.09375 -0.5625
v -0.125 0.59375 -0.3125
v -0.125 0.59375 -0.5625
vt 0.6470588235294118 0.5476190476190477
vt 0.6470588235294118 0.5952380952380952
vt 0.49019607843137253 0.5952380952380952
vt 0.49019607843137253 0.5476190476190477
vt 0.49019607843137253 0.5476190476190477
vt 0.6470588235294118 0.5476190476190477
vt 0.6470588235294118 0.5952380952380952
vt 0.49019607843137253 0.5952380952380952
vt 0.6470588235294118 0.5952380952380952
vt 0.49019607843137253 0.5952380952380952
vt 0.49019607843137253 0.5476190476190477
vt 0.6470588235294118 0.5476190476190477
vt 0.6470588235294118 0.5476190476190477
vt 0.6470588235294118 0.5952380952380952
vt 0.49019607843137253 0.5952380952380952
vt 0.49019607843137253 0.5476190476190477
vt 0.5686274509803921 0.38095238095238093
vt 0.5686274509803921 0.47619047619047616
vt 0.4117647058823529 0.47619047619047616
vt 0.4117647058823529 0.38095238095238093
vt 0.5686274509803921 0.47619047619047616
vt 0.4117647058823529 0.47619047619047616
vt 0.4117647058823529 0.38095238095238093
vt 0.5686274509803921 0.38095238095238093
vn 1 0 0
vn -1 0 0
vn 0 1 0
vn 0 -1 0
vn 0 0 1
vn 0 0 -1
usemtl m_42c23444-4d45-9881-7148-6c157c786e4d
f 2/1/1 1/2/1 3/3/1 4/4/1
f 7/5/2 5/6/2 6/7/2 8/8/2
f 5/9/3 1/10/3 2/11/3 6/12/3
f 4/13/4 3/14/4 7/15/4 8/16/4
f 3/17/5 1/18/5 5/19/5 7/20/5
f 6/21/6 2/22/6 4/23/6 8/24/6
o core
v -0.15977187499999998 1.5 0.3750000000000002
v 0.409771875 1.5 0.3750000000000002
v 0.409771875 1.5 0.12500000000000017
v -0.15977187499999998 1.5 0.12500000000000017
v 0.8125 1.0972718749999997 0.3750000000000001
v 0.8125 1.097271875 0.12500000000000008
v -0.10799562499999998 1.375 0.12500000000000014
v 0.35799499999999995 1.375 0.12500000000000014
v 0.8125 0.5277281249999999 0.37499999999999994
v 0.8125 0.5277281249999999 0.12499999999999994
v 0.6875 1.0454949999999998 0.12500000000000006
v 0.409771875 0.125 0.3749999999999999
v 0.409771875 0.125 0.12499999999999986
v 0.6875 0.579504375 0.12499999999999997
v -0.15977187499999998 0.125 0.3749999999999999
v -0.15977187499999998 0.125 0.12499999999999986
v 0.35799499999999995 0.25 0.12499999999999989
v -0.5625 0.5277281249999999 0.37499999999999994
v -0.5625 0.5277281249999999 0.12499999999999994
v -0.10799562499999998 0.25 0.12499999999999989
v -0.5625 1.0972718749999997 0.3750000000000001
v -0.5625 1.097271875 0.12500000000000008
v -0.4375 0.5795056249999999 0.12499999999999997
v -0.4375 1.0454956249999998 0.12500000000000006
v 0.125 0.8124999999999999 0.125
v 0.125 0.8124999999999999 0.375
v 0.35799562500000004 1.375 0.37500000000000017
v -0.10799500000000001 1.375 0.37500000000000017
v -0.4375 1.0454949999999998 0.3750000000000001
v -0.4375 0.5795043749999998 0.375
v -0.10799500000000001 0.25 0.3749999999999999
v 0.35799562500000004 0.25 0.3749999999999999
v 0.6875 0.5795043749999998 0.375
v 0.6875 1.0454949999999998 0.3750000000000001
vt 0.39215686274509803 0.8690476190476191
vt 0.5882352941176471 0.8690476190476191
vt 0.5882352941176471 0.9166666666666666
vt 0.39215686274509803 0.9166666666666666
vt 0.39215686274509803 0.8690476190476191
vt 0.5882352941176471 0.8690476190476191
vt 0.5882352941176471 0.9166666666666666
vt 0.39215686274509803 0.9166666666666666
vt 0.2549019607843137 0.9772729761904762
vt 0.21568627450980393 0.9880952380952381
vt 0.21568627450980393 0.8690476190476191
vt 0.2549019607843137 0.879869880952381
vt 0.39215686274509803 0.8690476190476191
vt 0.5882352941176471 0.8690476190476191
vt 0.5882352941176471 0.9166666666666666
vt 0.39215686274509803 0.9166666666666666
vt 0.2549019607843137 0.9772729761904762
vt 0.21568627450980393 0.9880952380952381
vt 0.21568627450980393 0.8690476190476191
vt 0.2549019607843137 0.879869880952381
vt 0.39215686274509803 0.8690476190476191
vt 0.5882352941176471 0.8690476190476191
vt 0.5882352941176471 0.9166666666666666
vt 0.39215686274509803 0.9166666666666666
vt 0.2549019607843137 0.9772729761904762
vt 0.21568627450980393 0.9880952380952381
vt 0.21568627450980393 0.8690476190476191
vt 0.2549019607843137 0.879869880952381
vt 0.39215686274509803 0.8690476190476191
vt 0.5882352941176471 0.8690476190476191
vt 0.5882352941176471 0.9166666666666666
vt 0.39215686274509803 0.9166666666666666
vt 0.2549019607843137 0.9772729761904762
vt 0.21568627450980393 0.9880952380952381
vt 0.21568627450980393 0.8690476190476191
vt 0.2549019607843137 0.879869880952381
vt 0.39215686274509803 0.8690476190476191
vt 0.5882352941176471 0.8690476190476191
vt 0.5882352941176471 0.9166666666666666
vt 0.39215686274509803 0.9166666666666666
vt 0.2549019607843137 0.9772729761904762
vt 0.21568627450980393 0.9880952380952381
vt 0.21568627450980393 0.8690476190476191
vt 0.2549019607843137 0.879869880952381
vt 0.39215686274509803 0.8690476190476191
vt 0.5882352941176471 0.8690476190476191
vt 0.5882352941176471 0.9166666666666666
vt 0.39215686274509803 0.9166666666666666
vt 0.2549019607843137 0.9772729761904762
vt 0.21568627450980393 0.9880952380952381
vt 0.21568627450980393 0.8690476190476191
vt 0.2549019607843137 0.879869880952381
vt 0.39215686274509803 0.8690476190476191
vt 0.5882352941176471 0.8690476190476191
vt 0.5882352941176471 0.9166666666666666
vt 0.39215686274509803 0.9166666666666666
vt 0.2549019607843137 0.9772729761904762
vt 0.21568627450980393 0.9880952380952381
vt 0.21568627450980393 0.8690476190476191
vt 0.2549019607843137 0.879869880952381
vt 0.2549019607843137 0.9772729761904762
vt 0.21568627450980393 0.9880952380952381
vt 0.21568627450980393 0.8690476190476191
vt 0.2549019607843137 0.879869880952381
vt 0.49019607843137253 0.8928571428571429
vt 0.6470588235294118 0.930952380952381
vt 0.5529411764705883 0.9880952380952381
vt 0.49019607843137253 0.8928571428571429
vt 0.6470588235294118 0.8547619047619048
vt 0.6470588235294118 0.930952380952381
vt 0.49019607843137253 0.8928571428571429
vt 0.5529411764705883 0.7976190476190477
vt 0.6470588235294118 0.8547619047619048
vt 0.49019607843137253 0.8928571428571429
vt 0.4274509803921569 0.7976190476190477
vt 0.5529411764705883 0.7976190476190477
vt 0.49019607843137253 0.8928571428571429
vt 0.5529411764705883 0.9880952380952381
vt 0.4274509803921569 0.9880952380952381
vt 0.49019607843137253 0.8928571428571429
vt 0.4274509803921569 0.9880952380952381
vt 0.3333333333333333 0.930952380952381
vt 0.49019607843137253 0.8928571428571429
vt 0.3333333333333333 0.930952380952381
vt 0.3333333333333333 0.8547619047619048
vt 0.49019607843137253 0.8928571428571429
vt 0.3333333333333333 0.8547619047619048
vt 0.4274509803921569 0.7976190476190477
vt 0.49019607843137253 0.8928571428571429
vt 0.4274509803921569 0.7976190476190477
vt 0.5529411764705883 0.7976190476190477
vt 0.49019607843137253 0.8928571428571429
vt 0.3333333333333333 0.8547619047619048
vt 0.4274509803921569 0.7976190476190477
vt 0.49019607843137253 0.8928571428571429
vt 0.5529411764705883 0.7976190476190477
vt 0.6470588235294118 0.8547619047619048
vt 0.49019607843137253 0.8928571428571429
vt 0.6470588235294118 0.8547619047619048
vt 0.6470588235294118 0.930952380952381
vt 0.49019607843137253 0.8928571428571429
vt 0.3333333333333333 0.930952380952381
vt 0.3333333333333333 0.8547619047619048
vt 0.2549019607843137 0.879869880952381
vt 0.21568627450980393 0.8690476190476191
vt 0.21568627450980393 0.9880952380952381
vt 0.2549019607843137 0.9772729761904762
vt 0.49019607843137253 0.8928571428571429
vt 0.6470588235294118 0.930952380952381
vt 0.5529411764705883 0.9880952380952381
vt 0.2549019607843137 0.879869880952381
vt 0.21568627450980393 0.8690476190476191
vt 0.21568627450980393 0.9880952380952381
vt 0.2549019607843137 0.9772729761904762
vt 0.2549019607843137 0.879869880952381
vt 0.21568627450980393 0.8690476190476191
vt 0.21568627450980393 0.9880952380952381
vt 0.2549019607843137 0.9772729761904762
vt 0.49019607843137253 0.8928571428571429
vt 0.4274509803921569 0.9880952380952381
vt 0.3333333333333333 0.930952380952381
vt 0.2549019607843137 0.879869880952381
vt 0.21568627450980393 0.8690476190476191
vt 0.21568627450980393 0.9880952380952381
vt 0.2549019607843137 0.9772729761904762
vt 0.2549019607843137 0.879869880952381
vt 0.21568627450980393 0.8690476190476191
vt 0.21568627450980393 0.9880952380952381
vt 0.2549019607843137 0.9772729761904762
vt 0.2549019607843137 0.879869880952381
vt 0.21568627450980393 0.8690476190476191
vt 0.21568627450980393 0.9880952380952381
vt 0.2549019607843137 0.9772729761904762
vt 0.2549019607843137 0.879869880952381
vt 0.21568627450980393 0.8690476190476191
vt 0.21568627450980393 0.9880952380952381
vt 0.2549019607843137 0.9772729761904762
vt 0.2549019607843137 0.879869880952381
vt 0.21568627450980393 0.8690476190476191
vt 0.21568627450980393 0.9880952380952381
vt 0.2549019607843137 0.9772729761904762
vt 0.49019607843137253 0.8928571428571429
vt 0.5529411764705883 0.9880952380952381
vt 0.4274509803921569 0.9880952380952381
vn 0 1 2.220446049250313e-16
vn 0.7071067811865478 0.7071067811865475 1.570092458683775e-16
vn 0 2.220446049250313e-16 -1
vn 1 0 0
vn 0 2.220446049250313e-16 -1
vn 0.7071067811865475 -0.7071067811865476 -1.5700924586837752e-16
vn 0 2.220446049250313e-16 -1
vn 0 -1 -2.220446049250313e-16
vn 0 2.220446049250313e-16 -1
vn -0.7071067811865475 -0.7071067811865476 -1.5700924586837752e-16
vn 0 2.220446049250313e-16 -1
vn -1 0 0
vn 0 2.220446049250313e-16 -1
vn -0.7071067811865478 0.7071067811865475 1.570092458683775e-16
vn 0 2.220446049250313e-16 -1
vn 0 2.220446049250313e-16 -1
vn 0 2.220446049250313e-16 -1
vn 0 2.220446049250313e-16 -1
vn 0 2.220446049250313e-16 -1
vn 0 2.220446049250313e-16 -1
vn 0 -2.220446049250313e-16 1
vn 0 -2.220446049250313e-16 1
vn 0 -2.220446049250313e-16 1
vn 0 2.220446049250313e-16 -1
vn 0 -2.220446049250313e-16 1
vn 0 -2.220446049250313e-16 1
vn 0 -2.220446049250313e-16 1
vn 0 -2.220446049250313e-16 1
vn 0 2.220446049250313e-16 -1
vn 0 -2.220446049250313e-16 1
vn 0 -2.220446049250313e-16 1
vn 0 -2.220446049250313e-16 1
vn 0 -2.220446049250313e-16 1
vn 0 2.220446049250313e-16 -1
vn 0 -2.220446049250313e-16 1
vn 0 -2.220446049250313e-16 1
vn 0 -2.220446049250313e-16 1
vn 0 -2.220446049250313e-16 1
vn 0 -2.220446049250313e-16 1
vn 0 2.220446049250313e-16 -1
usemtl m_42c23444-4d45-9881-7148-6c157c786e4d
f 9/25/7 10/26/7 11/27/7 12/28/7
f 10/29/8 13/30/8 14/31/8 11/32/8
f 15/33/9 12/34/9 11/35/9 16/36/9
f 13/37/10 17/38/10 18/39/10 14/40/10
f 16/41/11 11/42/11 14/43/11 19/44/11
f 17/45/12 20/46/12 21/47/12 18/48/12
f 19/49/13 14/50/13 18/51/13 22/52/13
f 20/53/14 23/54/14 24/55/14 21/56/14
f 22/57/15 18/58/15 21/59/15 25/60/15
f 23/61/16 26/62/16 27/63/16 24/64/16
f 25/65/17 21/66/17 24/67/17 28/68/17
f 26/69/18 29/70/18 30/71/18 27/72/18
f 28/73/19 24/74/19 27/75/19 31/76/19
f 29/77/20 9/78/20 12/79/20 30/80/20
f 31/81/21 27/82/21 30/83/21 32/84/21
f 32/85/22 30/86/22 12/87/22 15/88/22
f 33/89/23 32/90/23 15/91/23
f 33/92/24 31/93/24 32/94/24
f 33/95/25 28/96/25 31/97/25
f 33/98/26 25/99/26 28/100/26
f 34/101/27 35/102/27 36/103/27
f 34/104/28 36/105/28 37/106/28
f 34/107/29 37/108/29 38/109/29
f 33/110/30 22/111/30 25/112/30
f 34/113/31 39/114/31 40/115/31
f 34/116/32 38/117/32 39/118/32
f 34/119/33 40/120/33 41/121/33
f 34/122/34 41/123/34 42/124/34
f 33/125/35 19/126/35 22/127/35
f 42/128/36 13/129/36 10/130/36 35/131/36
f 34/132/37 42/133/37 35/134/37
f 41/135/38 17/136/38 13/137/38 42/138/38
f 40/139/39 20/140/39 17/141/39 41/142/39
f 33/143/40 16/144/40 19/145/40
f 38/146/41 26/147/41 23/148/41 39/149/41
f 39/150/42 23/151/42 20/152/42 40/153/42
f 37/154/43 29/155/43 26/156/43 38/157/43
f 36/158/44 9/159/44 29/160/44 37/161/44
f 35/162/45 10/163/45 9/164/45 36/165/45
f 33/166/46 15/167/46 16/168/46
o core
v -0.10799500000000001 1.375 0.12500000000000014
v 0.35799499999999995 1.375 0.12500000000000014
v 0.35799499999999995 1.375 -0.062499999999999854
v -0.10799500000000001 1.375 -0.062499999999999854
v 0.6875 1.0454949999999998 0.12500000000000008
v 0.6875 1.045495 -0.062499999999999924
v -0.06563249999999998 1.2727275 -0.06249999999999988
v 0.315631875 1.2727275 -0.06249999999999988
v 0.6875 0.5795049999999999 0.12499999999999997
v 0.6875 0.5795049999999999 -0.06250000000000003
v 0.5852275 1.003131875 -0.06249999999999994
v 0.35799499999999995 0.25 0.12499999999999989
v 0.35799499999999995 0.25 -0.06250000000000011
v 0.5852275 0.6218675 -0.06250000000000003
v -0.10799500000000001 0.25 0.12499999999999989
v -0.10799500000000001 0.25 -0.06250000000000011
v 0.315631875 0.35227249999999993 -0.06250000000000008
v -0.4375 0.5795049999999999 0.12499999999999997
v -0.4375 0.5795049999999999 -0.06250000000000003
v -0.06563249999999998 0.35227249999999993 -0.06250000000000008
v -0.4375 1.0454949999999998 0.12500000000000008
v -0.4375 1.045495 -0.062499999999999924
v -0.3352275 0.621868125 -0.06250000000000003
v -0.3352275 1.003133125 -0.06249999999999994
v 0.125 0.8125 -0.06249999999999998
v 0.125 0.8124999999999999 0.12500000000000003
v 0.3156325 1.2727275 0.1250000000000001
v -0.065631875 1.2727275 0.1250000000000001
v -0.3352275 1.003131875 0.12500000000000006
v -0.3352275 0.6218674999999999 0.12499999999999997
v -0.065631875 0.35227249999999993 0.12499999999999992
v 0.3156325 0.35227249999999993 0.12499999999999992
v 0.5852275 0.6218674999999999 0.12499999999999997
v 0.5852275 1.003131875 0.12500000000000006
vt 0.39215686274509803 0.8928571428571429
vt 0.5882352941176471 0.8928571428571429
vt 0.5882352941176471 0.9261904761904762
vt 0.39215686274509803 0.9261904761904762
vt 0.39215686274509803 0.8928571428571429
vt 0.5882352941176471 0.8928571428571429
vt 0.5882352941176471 0.9261904761904762
vt 0.39215686274509803 0.9261904761904762
vt 0.2549019607843137 0.9772729761904762
vt 0.21568627450980393 0.9880952380952381
vt 0.21568627450980393 0.8690476190476191
vt 0.2549019607843137 0.879869880952381
vt 0.39215686274509803 0.8928571428571429
vt 0.5882352941176471 0.8928571428571429
vt 0.5882352941176471 0.9261904761904762
vt 0.39215686274509803 0.9261904761904762
vt 0.2549019607843137 0.9772729761904762
vt 0.21568627450980393 0.9880952380952381
vt 0.21568627450980393 0.8690476190476191
vt 0.2549019607843137 0.879869880952381
vt 0.39215686274509803 0.8928571428571429
vt 0.5882352941176471 0.8928571428571429
vt 0.5882352941176471 0.9261904761904762
vt 0.39215686274509803 0.9261904761904762
vt 0.2549019607843137 0.9772729761904762
vt 0.21568627450980393 0.9880952380952381
vt 0.21568627450980393 0.8690476190476191
vt 0.2549019607843137 0.879869880952381
vt 0.39215686274509803 0.8928571428571429
vt 0.5882352941176471 0.8928571428571429
vt 0.5882352941176471 0.9261904761904762
vt 0.39215686274509803 0.9261904761904762
vt 0.2549019607843137 0.9772729761904762
vt 0.21568627450980393 0.9880952380952381
vt 0.21568627450980393 0.8690476190476191
vt 0.2549019607843137 0.879869880952381
vt 0.39215686274509803 0.8928571428571429
vt 0.5882352941176471 0.8928571428571429
vt 0.5882352941176471 0.9261904761904762
vt 0.39215686274509803 0.9261904761904762
vt 0.2549019607843137 0.9772729761904762
vt 0.21568627450980393 0.9880952380952381
vt 0.21568627450980393 0.8690476190476191
vt 0.2549019607843137 0.879869880952381
vt 0.39215686274509803 0.8928571428571429
vt 0.5882352941176471 0.8928571428571429
vt 0.5882352941176471 0.9261904761904762
vt 0.39215686274509803 0.9261904761904762
vt 0.2549019607843137 0.9772729761904762
vt 0.21568627450980393 0.9880952380952381
vt 0.21568627450980393 0.8690476190476191
vt 0.2549019607843137 0.879869880952381
vt 0.39215686274509803 0.8928571428571429
vt 0.5882352941176471 0.8928571428571429
vt 0.5882352941176471 0.9261904761904762
vt 0.39215686274509803 0.9261904761904762
vt 0.2549019607843137 0.9772729761904762
vt 0.21568627450980393 0.9880952380952381
vt 0.21568627450980393 0.8690476190476191
vt 0.2549019607843137 0.879869880952381
vt 0.2549019607843137 0.9772729761904762
vt 0.21568627450980393 0.9880952380952381
vt 0.21568627450980393 0.8690476190476191
vt 0.2549019607843137 0.879869880952381
vt 0.49019607843137253 0.8928571428571429
vt 0.6470588235294118 0.930952380952381
vt 0.5529411764705883 0.9880952380952381
vt 0.49019607843137253 0.8928571428571429
vt 0.6470588235294118 0.8547619047619048
vt 0.6470588235294118 0.930952380952381
vt 0.49019607843137253 0.8928571428571429
vt 0.5529411764705883 0.7976190476190477
vt 0.6470588235294118 0.8547619047619048
vt 0.49019607843137253 0.8928571428571429
vt 0.4274509803921569 0.7976190476190477
vt 0.5529411764705883 0.7976190476190477
vt 0.49019607843137253 0.8928571428571429
vt 0.5529411764705883 0.9880952380952381
vt 0.4274509803921569 0.9880952380952381
vt 0.49019607843137253 0.8928571428571429
vt 0.4274509803921569 0.9880952380952381
vt 0.3333333333333333 0.930952380952381
vt 0.49019607843137253 0.8928571428571429
vt 0.3333333333333333 0.930952380952381
vt 0.3333333333333333 0.8547619047619048
vt 0.49019607843137253 0.8928571428571429
vt 0.3333333333333333 0.8547619047619048
vt 0.4274509803921569 0.7976190476190477
vt 0.49019607843137253 0.8928571428571429
vt 0.4274509803921569 0.7976190476190477
vt 0.5529411764705883 0.7976190476190477
vt 0.49019607843137253 0.8928571428571429
vt 0.3333333333333333 0.8547619047619048
vt 0.4274509803921569 0.7976190476190477
vt 0.49019607843137253 0.8928571428571429
vt 0.5529411764705883 0.7976190476190477
vt 0.6470588235294118 0.8547619047619048
vt 0.49019607843137253 0.8928571428571429
vt 0.6470588235294118 0.8547619047619048
vt 0.6470588235294118 0.930952380952381
vt 0.49019607843137253 0.8928571428571429
vt 0.3333333333333333 0.930952380952381
vt 0.3333333333333333 0.8547619047619048
vt 0.2549019607843137 0.879869880952381
vt 0.21568627450980393 0.8690476190476191
vt 0.21568627450980393 0.9880952380952381
vt 0.2549019607843137 0.9772729761904762
vt 0.49019607843137253 0.8928571428571429
vt 0.6470588235294118 0.930952380952381
vt 0.5529411764705883 0.9880952380952381
vt 0.2549019607843137 0.879869880952381
vt 0.21568627450980393 0.8690476190476191
vt 0.21568627450980393 0.9880952380952381
vt 0.2549019607843137 0.9772729761904762
vt 0.2549019607843137 0.879869880952381
vt 0.21568627450980393 0.8690476190476191
vt 0.21568627450980393 0.9880952380952381
vt 0.2549019607843137 0.9772729761904762
vt 0.49019607843137253 0.8928571428571429
vt 0.4274509803921569 0.9880952380952381
vt 0.3333333333333333 0.930952380952381
vt 0.2549019607843137 0.879869880952381
vt 0.21568627450980393 0.8690476190476191
vt 0.21568627450980393 0.9880952380952381
vt 0.2549019607843137 0.9772729761904762
vt 0.2549019607843137 0.879869880952381
vt 0.21568627450980393 0.8690476190476191
vt 0.21568627450980393 0.9880952380952381
vt 0.2549019607843137 0.9772729761904762
vt 0.2549019607843137 0.879869880952381
vt 0.21568627450980393 0.8690476190476191
vt 0.21568627450980393 0.9880952380952381
vt 0.2549019607843137 0.9772729761904762
vt 0.2549019607843137 0.879869880952381
vt 0.21568627450980393 0.8690476190476191
vt 0.21568627450980393 0.9880952380952381
vt 0.2549019607843137 0.9772729761904762
vt 0.2549019607843137 0.879869880952381
vt 0.21568627450980393 0.8690476190476191
vt 0.21568627450980393 0.9880952380952381
vt 0.2549019607843137 0.9772729761904762
vt 0.49019607843137253 0.8928571428571429
vt 0.5529411764705883 0.9880952380952381
vt 0.4274509803921569 0.9880952380952381
vn 0 1 2.220446049250313e-16
vn 0.7071067811865476 0.7071067811865476 1.5700924586837752e-16
vn 0 2.220446049250313e-16 -1
vn 1 0 0
vn 0 2.220446049250313e-16 -1
vn 0.7071067811865474 -0.7071067811865477 -1.5700924586837754e-16
vn 0 2.220446049250313e-16 -1
vn 0 -1 -2.220446049250313e-16
vn 0 2.220446049250313e-16 -1
vn -0.7071067811865475 -0.7071067811865477 -1.5700924586837754e-16
vn 0 2.220446049250313e-16 -1
vn -1 0 0
vn 0 2.220446049250313e-16 -1
vn -0.7071067811865476 0.7071067811865475 1.570092458683775e-16
vn 0 2.220446049250313e-16 -1
vn 0 2.220446049250313e-16 -1
vn 0 2.220446049250313e-16 -1
vn 0 2.220446049250313e-16 -1
vn 0 2.220446049250313e-16 -1
vn 0 2.220446049250313e-16 -1
vn 0 -2.220446049250313e-16 1
vn 0 -2.220446049250313e-16 1
vn 0 -2.220446049250313e-16 1
vn 0 2.220446049250313e-16 -1
vn 0 -2.220446049250313e-16 1
vn 0 -2.220446049250313e-16 1
vn 0 -2.220446049250313e-16 1
vn 0 -2.220446049250313e-16 1
vn 0 2.220446049250313e-16 -1
vn 0 -2.220446049250313e-16 1
vn 0 -2.220446049250313e-16 1
vn 0 -2.220446049250313e-16 1
vn 0 -2.220446049250313e-16 1
vn 0 2.220446049250313e-16 -1
vn 0 -2.220446049250313e-16 1
vn 0 -2.220446049250313e-16 1
vn 0 -2.220446049250313e-16 1
vn 0 -2.220446049250313e-16 1
vn 0 -2.220446049250313e-16 1
vn 0 2.220446049250313e-16 -1
usemtl m_42c23444-4d45-9881-7148-6c157c786e4d
f 43/169/47 44/170/47 45/171/47 46/172/47
f 44/173/48 47/174/48 48/175/48 45/176/48
f 49/177/49 46/178/49 45/179/49 50/180/49
f 47/181/50 51/182/50 52/183/50 48/184/50
f 50/185/51 45/186/51 48/187/51 53/188/51
f 51/189/52 54/190/52 55/191/52 52/192/52
f 53/193/53 48/194/53 52/195/53 56/196/53
f 54/197/54 57/198/54 58/199/54 55/200/54
f 56/201/55 52/202/55 55/203/55 59/204/55
f 57/205/56 60/206/56 61/207/56 58/208/56
f 59/209/57 55/210/57 58/211/57 62/212/57
f 60/213/58 63/214/58 64/215/58 61/216/58
f 62/217/59 58/218/59 61/219/59 65/220/59
f 63/221/60 43/222/60 46/223/60 64/224/60
f 65/225/61 61/226/61 64/227/61 66/228/61
f 66/229/62 64/230/62 46/231/62 49/232/62
f 67/233/63 66/234/63 49/235/63
f 67/236/64 65/237/64 66/238/64
f 67/239/65 62/240/65 65/241/65
f 67/242/66 59/243/66 62/244/66
f 68/245/67 69/246/67 70/247/67
f 68/248/68 70/249/68 71/250/68
f 68/251/69 71/252/69 72/253/69
f 67/254/70 56/255/70 59/256/70
f 68/257/71 73/258/71 74/259/71
f 68/260/72 72/261/72 73/262/72
f 68/263/73 74/264/73 75/265/73
f 68/266/74 75/267/74 76/268/74
f 67/269/75 53/270/75 56/271/75
f 76/272/76 47/273/76 44/274/76 69/275/76
f 68/276/77 76/277/77 69/278/77
f 75/279/78 51/280/78 47/281/78 76/282/78
f 74/283/79 54/284/79 51/285/79 75/286/79
f 67/287/80 50/288/80 53/289/80
f 72/290/81 60/291/81 57/292/81 73/293/81
f 73/294/82 57/295/82 54/296/82 74/297/82
f 71/298/83 63/299/83 60/300/83 72/301/83
f 70/302/84 43/303/84 63/304/84 71/305/84
f 69/306/85 44/307/85 43/308/85 70/309/85
f 67/310/86 49/311/86 50/312/86
o core
v -0.15977187499999998 1.5 -0.06249999999999983
v 0.409771875 1.5 -0.06249999999999983
v 0.409771875 1.5 -0.31249999999999983
v -0.15977187499999998 1.5 -0.31249999999999983
v 0.8125 1.097271875 -0.06249999999999992
v 0.8125 1.0972718750000001 -0.3124999999999999
v -0.10799562499999998 1.375 -0.31249999999999983
v 0.35799499999999995 1.375 -0.31249999999999983
v 0.8125 0.527728125 -0.06250000000000006
v 0.8125 0.527728125 -0.3125
v 0.6875 1.045495 -0.3124999999999999
v 0.409771875 0.125 -0.06250000000000014
v 0.409771875 0.125 -0.3125000000000001
v 0.6875 0.579504375 -0.3125
v -0.15977187499999998 0.125 -0.06250000000000014
v -0.15977187499999998 0.125 -0.3125000000000001
v 0.35799499999999995 0.25 -0.3125000000000001
v -0.5625 0.527728125 -0.06250000000000006
v -0.5625 0.527728125 -0.3125
v -0.10799562499999998 0.25 -0.3125000000000001
v -0.5625 1.097271875 -0.06249999999999992
v -0.5625 1.0972718750000001 -0.3124999999999999
v -0.4375 0.579505625 -0.3125
v -0.4375 1.045495625 -0.3124999999999999
v 0.125 0.8125 -0.3125
v 0.125 0.8125 -0.062499999999999986
v 0.35799562500000004 1.375 -0.06249999999999986
v -0.10799500000000001 1.375 -0.06249999999999986
v -0.4375 1.045495 -0.062499999999999944
v -0.4375 0.579504375 -0.06250000000000004
v -0.10799500000000001 0.25 -0.06250000000000011
v 0.35799562500000004 0.25 -0.06250000000000011
v 0.6875 0.579504375 -0.06250000000000004
v 0.6875 1.045495 -0.062499999999999944
vt 0.39215686274509803 0.8690476190476191
vt 0.5882352941176471 0.8690476190476191
vt 0.5882352941176471 0.9166666666666666
vt 0.39215686274509803 0.9166666666666666
vt 0.39215686274509803 0.8690476190476191
vt 0.5882352941176471 0.8690476190476191
vt 0.5882352941176471 0.9166666666666666
vt 0.39215686274509803 0.9166666666666666
vt 0.2549019607843137 0.9772729761904762
vt 0.21568627450980393 0.9880952380952381
vt 0.21568627450980393 0.8690476190476191
vt 0.2549019607843137 0.879869880952381
vt 0.39215686274509803 0.8690476190476191
vt 0.5882352941176471 0.8690476190476191
vt 0.5882352941176471 0.9166666666666666
vt 0.39215686274509803 0.9166666666666666
vt 0.2549019607843137 0.9772729761904762
vt 0.21568627450980393 0.9880952380952381
vt 0.21568627450980393 0.8690476190476191
vt 0.2549019607843137 0.879869880952381
vt 0.39215686274509803 0.8690476190476191
vt 0.5882352941176471 0.8690476190476191
vt 0.5882352941176471 0.9166666666666666
vt 0.39215686274509803 0.9166666666666666
vt 0.2549019607843137 0.9772729761904762
vt 0.21568627450980393 0.9880952380952381
vt 0.21568627450980393 0.8690476190476191
vt 0.2549019607843137 0.879869880952381
vt 0.39215686274509803 0.8690476190476191
vt 0.5882352941176471 0.8690476190476191
vt 0.5882352941176471 0.9166666666666666
vt 0.39215686274509803 0.9166666666666666
vt 0.2549019607843137 0.9772729761904762
vt 0.21568627450980393 0.9880952380952381
vt 0.21568627450980393 0.8690476190476191
vt 0.2549019607843137 0.879869880952381
vt 0.39215686274509803 0.8690476190476191
vt 0.5882352941176471 0.8690476190476191
vt 0.5882352941176471 0.9166666666666666
vt 0.39215686274509803 0.9166666666666666
vt 0.2549019607843137 0.9772729761904762
vt 0.21568627450980393 0.9880952380952381
vt 0.21568627450980393 0.8690476190476191
vt 0.2549019607843137 0.879869880952381
vt 0.39215686274509803 0.8690476190476191
vt 0.5882352941176471 0.8690476190476191
vt 0.5882352941176471 0.9166666666666666
vt 0.39215686274509803 0.9166666666666666
vt 0.2549019607843137 0.9772729761904762
vt 0.21568627450980393 0.9880952380952381
vt 0.21568627450980393 0.8690476190476191
vt 0.2549019607843137 0.879869880952381
vt 0.39215686274509803 0.8690476190476191
vt 0.5882352941176471 0.8690476190476191
vt 0.5882352941176471 0.9166666666666666
vt 0.39215686274509803 0.9166666666666666
vt 0.2549019607843137 0.9772729761904762
vt 0.21568627450980393 0.9880952380952381
vt 0.21568627450980393 0.8690476190476191
vt 0.2549019607843137 0.879869880952381
vt 0.2549019607843137 0.9772729761904762
vt 0.21568627450980393 0.9880952380952381
vt 0.21568627450980393 0.8690476190476191
vt 0.2549019607843137 0.879869880952381
vt 0.49019607843137253 0.8928571428571429
vt 0.6470588235294118 0.930952380952381
vt 0.5529411764705883 0.9880952380952381
vt 0.49019607843137253 0.8928571428571429
vt 0.6470588235294118 0.8547619047619048
vt 0.6470588235294118 0.930952380952381
vt 0.49019607843137253 0.8928571428571429
vt 0.5529411764705883 0.7976190476190477
vt 0.6470588235294118 0.8547619047619048
vt 0.49019607843137253 0.8928571428571429
vt 0.4274509803921569 0.7976190476190477
vt 0.5529411764705883 0.7976190476190477
vt 0.49019607843137253 0.8928571428571429
vt 0.5529411764705883 0.9880952380952381
vt 0.4274509803921569 0.9880952380952381
vt 0.49019607843137253 0.8928571428571429
vt 0.4274509803921569 0.9880952380952381
vt 0.3333333333333333 0.930952380952381
vt 0.49019607843137253 0.8928571428571429
vt 0.3333333333333333 0.930952380952381
vt 0.3333333333333333 0.8547619047619048
vt 0.49019607843137253 0.8928571428571429
vt 0.3333333333333333 0.8547619047619048
vt 0.4274509803921569 0.7976190476190477
vt 0.49019607843137253 0.8928571428571429
vt 0.4274509803921569 0.7976190476190477
vt 0.5529411764705883 0.7976190476190477
vt 0.49019607843137253 0.8928571428571429
vt 0.3333333333333333 0.8547619047619048
vt 0.4274509803921569 0.7976190476190477
vt 0.49019607843137253 0.8928571428571429
vt 0.5529411764705883 0.7976190476190477
vt 0.6470588235294118 0.8547619047619048
vt 0.49019607843137253 0.8928571428571429
vt 0.6470588235294118 0.8547619047619048
vt 0.6470588235294118 0.930952380952381
vt 0.49019607843137253 0.8928571428571429
vt 0.3333333333333333 0.930952380952381
vt 0.3333333333333333 0.8547619047619048
vt 0.2549019607843137 0.879869880952381
vt 0.21568627450980393 0.8690476190476191
vt 0.21568627450980393 0.9880952380952381
vt 0.2549019607843137 0.9772729761904762
vt 0.49019607843137253 0.8928571428571429
vt 0.6470588235294118 0.930952380952381
vt 0.5529411764705883 0.9880952380952381
vt 0.2549019607843137 0.879869880952381
vt 0.21568627450980393 0.8690476190476191
vt 0.21568627450980393 0.9880952380952381
vt 0.2549019607843137 0.9772729761904762
vt 0.2549019607843137 0.879869880952381
vt 0.21568627450980393 0.8690476190476191
vt 0.21568627450980393 0.9880952380952381
vt 0.2549019607843137 0.9772729761904762
vt 0.49019607843137253 0.8928571428571429
vt 0.4274509803921569 0.9880952380952381
vt 0.3333333333333333 0.930952380952381
vt 0.2549019607843137 0.879869880952381
vt 0.21568627450980393 0.8690476190476191
vt 0.21568627450980393 0.9880952380952381
vt 0.2549019607843137 0.9772729761904762
vt 0.2549019607843137 0.879869880952381
vt 0.21568627450980393 0.8690476190476191
vt 0.21568627450980393 0.9880952380952381
vt 0.2549019607843137 0.9772729761904762
vt 0.2549019607843137 0.879869880952381
vt 0.21568627450980393 0.8690476190476191
vt 0.21568627450980393 0.9880952380952381
vt 0.2549019607843137 0.9772729761904762
vt 0.2549019607843137 0.879869880952381
vt 0.21568627450980393 0.8690476190476191
vt 0.21568627450980393 0.9880952380952381
vt 0.2549019607843137 0.9772729761904762
vt 0.2549019607843137 0.879869880952381
vt 0.21568627450980393 0.8690476190476191
vt 0.21568627450980393 0.9880952380952381
vt 0.2549019607843137 0.9772729761904762
vt 0.49019607843137253 0.8928571428571429
vt 0.5529411764705883 0.9880952380952381
vt 0.4274509803921569 0.9880952380952381
vn 0 1 2.220446049250313e-16
vn 0.7071067811865476 0.7071067811865475 1.570092458683775e-16
vn 0 2.220446049250313e-16 -1
vn 1 0 0
vn 0 2.220446049250313e-16 -1
vn 0.7071067811865476 -0.7071067811865476 -1.5700924586837752e-16
vn 0 2.220446049250313e-16 -1
vn 0 -1 -2.220446049250313e-16
vn 0 2.220446049250313e-16 -1
vn -0.7071067811865476 -0.7071067811865476 -1.5700924586837752e-16
vn 0 2.220446049250313e-16 -1
vn -1 0 0
vn 0 2.220446049250313e-16 -1
vn -0.7071067811865476 0.7071067811865475 1.570092458683775e-16
vn 0 2.220446049250313e-16 -1
vn 0 2.220446049250313e-16 -1
vn 0 2.220446049250313e-16 -1
vn 0 2.220446049250313e-16 -1
vn 0 2.220446049250313e-16 -1
vn 0 2.220446049250313e-16 -1
vn 0 -2.220446049250313e-16 1
vn 0 -2.220446049250313e-16 1
vn 0 -2.220446049250313e-16 1
vn 0 2.220446049250313e-16 -1
vn 0 -2.220446049250313e-16 1
vn 0 -2.220446049250313e-16 1
vn 0 -2.220446049250313e-16 1
vn 0 -2.220446049250313e-16 1
vn 0 2.220446049250313e-16 -1
vn 0 -2.220446049250313e-16 1
vn 0 -2.220446049250313e-16 1
vn 0 -2.220446049250313e-16 1
vn 0 -2.220446049250313e-16 1
vn 0 2.220446049250313e-16 -1
vn 0 -2.220446049250313e-16 1
vn 0 -2.220446049250313e-16 1
vn 0 -2.220446049250313e-16 1
vn 0 -2.220446049250313e-16 1
vn 0 -2.220446049250313e-16 1
vn 0 2.220446049250313e-16 -1
usemtl m_42c23444-4d45-9881-7148-6c157c786e4d
f 77/313/87 78/314/87 79/315/87 80/316/87
f 78/317/88 81/318/88 82/319/88 79/320/88
f 83/321/89 80/322/89 79/323/89 84/324/89
f 81/325/90 85/326/90 86/327/90 82/328/90
f 84/329/91 79/330/91 82/331/91 87/332/91
f 85/333/92 88/334/92 89/335/92 86/336/92
f 87/337/93 82/338/93 86/339/93 90/340/93
f 88/341/94 91/342/94 92/343/94 89/344/94
f 90/345/95 86/346/95 89/347/95 93/348/95
f 91/349/96 94/350/96 95/351/96 92/352/96
f 93/353/97 89/354/97 92/355/97 96/356/97
f 94/357/98 97/358/98 98/359/98 95/360/98
f 96/361/99 92/362/99 95/363/99 99/364/99
f 97/365/100 77/366/100 80/367/100 98/368/100
f 99/369/101 95/370/101 98/371/101 100/372/101
f 100/373/102 98/374/102 80/375/102 83/376/102
f 101/377/103 100/378/103 83/379/103
f 101/380/104 99/381/104 100/382/104
f 101/383/105 96/384/105 99/385/105
f 101/386/106 93/387/106 96/388/106
f 102/389/107 103/390/107 104/391/107
f 102/392/108 104/393/108 105/394/108
f 102/395/109 105/396/109 106/397/109
f 101/398/110 90/399/110 93/400/110
f 102/401/111 107/402/111 108/403/111
f 102/404/112 106/405/112 107/406/112
f 102/407/113 108/408/113 109/409/113
f 102/410/114 109/411/114 110/412/114
f 101/413/115 87/414/115 90/415/115
f 110/416/116 81/417/116 78/418/116 103/419/116
f 102/420/117 110/421/117 103/422/117
f 109/423/118 85/424/118 81/425/118 110/426/118
f 108/427/119 88/428/119 85/429/119 109/430/119
f 101/431/120 84/432/120 87/433/120
f 106/434/121 94/435/121 91/436/121 107/437/121
f 107/438/122 91/439/122 88/440/122 108/441/122
f 105/442/123 97/443/123 94/444/123 106/445/123
f 104/446/124 77/447/124 97/448/124 105/449/124
f 103/450/125 78/451/125 77/452/125 104/453/125
f 101/454/126 83/455/126 84/456/126
o mesh
v 0.375 1.09375 0.625
v 0.375 1.09375 0.375
v 0.375 0.59375 0.625
v 0.375 0.59375 0.375
v -0.125 1.09375 0.625
v -0.125 1.09375 0.375
v -0.125 0.59375 0.625
v -0.125 0.59375 0.375
vt 0.6470588235294118 0.5476190476190477
vt 0.6470588235294118 0.5952380952380952
vt 0.49019607843137253 0.5952380952380952
vt 0.49019607843137253 0.5476190476190477
vt 0.49019607843137253 0.5476190476190477
vt 0.6470588235294118 0.5476190476190477
vt 0.6470588235294118 0.5952380952380952
vt 0.49019607843137253 0.5952380952380952
vt 0.6470588235294118 0.5952380952380952
vt 0.49019607843137253 0.5952380952380952
vt 0.49019607843137253 0.5476190476190477
vt 0.6470588235294118 0.5476190476190477
vt 0.6470588235294118 0.5476190476190477
vt 0.6470588235294118 0.5952380952380952
vt 0.49019607843137253 0.5952380952380952
vt 0.49019607843137253 0.5476190476190477
vt 0.5686274509803921 0.38095238095238093
vt 0.5686274509803921 0.47619047619047616
vt 0.4117647058823529 0.47619047619047616
vt 0.4117647058823529 0.38095238095238093
vt 0.5686274509803921 0.47619047619047616
vt 0.4117647058823529 0.47619047619047616
vt 0.4117647058823529 0.38095238095238093
vt 0.5686274509803921 0.38095238095238093
vn 1 0 0
vn -1 0 0
vn 0 1 0
vn 0 -1 0
vn 0 0 1
vn 0 0 -1
usemtl m_42c23444-4d45-9881-7148-6c157c786e4d
f 112/457/127 111/458/127 113/459/127 114/460/127
f 117/461/128 115/462/128 116/463/128 118/464/128
f 115/465/129 111/466/129 112/467/129 116/468/129
f 114/469/130 113/470/130 117/471/130 118/472/130
f 113/473/131 111/474/131 115/475/131 117/476/131
f 116/477/132 112/478/132 114/479/132 118/480/132
o cube
v 0.375 0.59375 0.53125
v 0.375 0.59375 -0.46875
v 0.375 -0.40625 0.53125
v 0.375 -0.40625 -0.46875
v -0.625 0.59375 -0.46875
v -0.625 0.59375 0.53125
v -0.625 -0.40625 -0.46875
v -0.625 -0.40625 0.53125
vt 0.9803921568627451 0.9880952380952381
vt 0.6666666666666666 0.9880952380952381
vt 0.6666666666666666 0.7976190476190477
vt 0.9803921568627451 0.7976190476190477
vt 0.0196078431372549 0.20238095238095233
vt 0.3333333333333333 0.20238095238095233
vt 0.3333333333333333 0.011904761904761862
vt 0.0196078431372549 0.011904761904761862
vt 0.6666666666666666 0.9880952380952381
vt 0.9803921568627451 0.9880952380952381
vt 0.9803921568627451 0.7976190476190477
vt 0.6666666666666666 0.7976190476190477
vt 0.6666666666666666 0.5952380952380952
vt 0.9751633333333334 0.5952380952380952
vt 0.9751633333333334 0.40793654761904763
vt 0.6666666666666666 0.40793654761904763
vt 0.35294117647058826 0.20238095238095233
vt 0.6666666666666666 0.20238095238095233
vt 0.6666666666666666 0.011904761904761862
vt 0.35294117647058826 0.011904761904761862
vt 0.0196078431372549 0.5952380952380952
vt 0.3333333333333333 0.5952380952380952
vt 0.3333333333333333 0.40476190476190477
vt 0.0196078431372549 0.40476190476190477
vn 0 0 -1
vn 1 0 0
vn 0 0 1
vn -1 0 0
vn 0 1 0
vn 0 -1 0
usemtl m_42c23444-4d45-9881-7148-6c157c786e4d
f 122/484/133 125/483/133 123/482/133 120/481/133
f 121/488/134 122/487/134 120/486/134 119/485/134
f 126/492/135 121/491/135 119/490/135 124/489/135
f 125/496/136 126/495/136 124/494/136 123/493/136
f 124/500/137 119/499/137 120/498/137 123/497/137
f 125/504/138 122/503/138 121/502/138 126/501/138